{
    "asset" : {
        "generator" : "Khronos glTF Blender I/O v1.2.20",
        "version" : "2.0"
    },
    "scene" : 0,
    "scenes" : [
        {
            "nodes" : [
                0,
                1,
                2,
                3,
                4,
                5,
                7,
                8,
                9
            ],
            "name" : "Scene"
        }
    ],
    "nodes" : [
        {
            "translation" : [
                7.481131553649902,
                5.34366512298584,
                6.5076398849487305
            ],
            "rotation" : [
                0.483536034822464,
                0.33687159419059753,
                -0.20870360732078552,
                0.7804827094078064
            ],
            "name" : "Camera.001"
        },
        {
            "translation" : [
                0.9412814974784851,
                0.4390828609466553,
                -1.465346336364746
            ],
            "mesh" : 0,
            "rotation" : [
                0,
                0,
                -0.7071068286895752,
                0.7071068286895752
            ],
            "name" : "Tire.4_tire1.002_0"
        },
        {
            "translation" : [
                -0.6993125677108765,
                0.4410610795021057,
                -1.459484577178955
            ],
            "mesh" : 1,
            "rotation" : [
                0,
                0,
                -0.7071068286895752,
                0.7071068286895752
            ],
            "name" : "Tire.3_tire1.002_0"
        },
        {
            "translation" : [
                -0.6979331970214844,
                0.44111764430999756,
                1.8819141387939453
            ],
            "mesh" : 2,
            "rotation" : [
                0,
                0,
                -0.7071068286895752,
                0.7071068286895752
            ],
            "name" : "Tire.2_tire1.002_0"
        },
        {
            "translation" : [
                0.9407519102096558,
                0.44038504362106323,
                1.8859105110168457
            ],
            "mesh" : 3,
            "rotation" : [
                0,
                0,
                -0.7071068286895752,
                0.7071068286895752
            ],
            "name" : "Tire.1_tire1.002_0"
        },
        {
            "translation" : [
                0.07596352696418762,
                0.5049208998680115,
                0
            ],
            "mesh" : 4,
            "rotation" : [
                -0.5,
                -0.5000000596046448,
                -0.5000000596046448,
                0.5
            ],
            "name" : "Car_Material.002_0"
        },
        {
            "name" : "RootNode"
        },
        {
            "rotation" : [
                0.7071068286895752,
                0,
                0,
                0.7071068286895752
            ],
            "scale" : [
                0.009999999776482582,
                0.009999999776482582,
                0.009999999776482582
            ],
            "children" : [
                6
            ],
            "name" : "b38e473ff2484b0b9968d3cd78b5ee6f.fbx"
        },
        {
            "translation" : [
                0.28415918350219727,
                1.285752296447754,
                2.0339698791503906
            ],
            "rotation" : [
                0.16907575726509094,
                0.7558803558349609,
                -0.27217137813568115,
                0.570947527885437
            ],
            "name" : "Lamp"
        },
        {
            "translation" : [
                7.481131553649902,
                5.34366512298584,
                6.5076398849487305
            ],
            "rotation" : [
                0.483536034822464,
                0.33687159419059753,
                -0.20870360732078552,
                0.7804827094078064
            ],
            "name" : "Camera"
        }
    ],
    "materials" : [
        {
            "pbrMetallicRoughness" : {
                "metallicFactor" : 0,
                "baseColorTexture" : {
                    "index" : 0,
                    "texCoord" : 0
                },
                "roughnessFactor" : 1
            },
            "name" : "Material.005_COLOR_0"
        },
        {
            "pbrMetallicRoughness" : {
                "metallicFactor" : 0,
                "baseColorTexture" : {
                    "index" : 1,
                    "texCoord" : 0
                },
                "roughnessFactor" : 1
            },
            "name" : "Material.002_COLOR_0"
        },
        {
            "pbrMetallicRoughness" : {
                "metallicFactor" : 0,
                "baseColorTexture" : {
                    "index" : 2,
                    "texCoord" : 0
                },
                "roughnessFactor" : 1
            },
            "name" : "Material.004_COLOR_0"
        },
        {
            "pbrMetallicRoughness" : {
                "metallicFactor" : 0,
                "baseColorTexture" : {
                    "index" : 3,
                    "texCoord" : 0
                },
                "roughnessFactor" : 1
            },
            "name" : "Material.003_COLOR_0"
        },
        {
            "pbrMetallicRoughness" : {
                "metallicFactor" : 0,
                "baseColorTexture" : {
                    "index" : 4,
                    "texCoord" : 0
                },
                "roughnessFactor" : 0
            },
            "name" : "Material.001"
        }
    ],
    "meshes" : [
        {
            "primitives" : [
                {
                    "material" : 0,
                    "attributes" : {
                        "TEXCOORD_0" : 0,
                        "NORMAL" : 1,
                        "POSITION" : 2,
                        "COLOR_0" : 3
                    },
                    "indices" : 4
                }
            ],
            "name" : "Tire.4_tire1.002_0"
        },
        {
            "primitives" : [
                {
                    "material" : 1,
                    "attributes" : {
                        "TEXCOORD_0" : 5,
                        "NORMAL" : 6,
                        "POSITION" : 7,
                        "COLOR_0" : 8
                    },
                    "indices" : 4
                }
            ],
            "name" : "Tire.3_tire1.002_0"
        },
        {
            "primitives" : [
                {
                    "material" : 2,
                    "attributes" : {
                        "TEXCOORD_0" : 9,
                        "NORMAL" : 10,
                        "POSITION" : 11,
                        "COLOR_0" : 12
                    },
                    "indices" : 4
                }
            ],
            "name" : "Tire.2_tire1.002_0"
        },
        {
            "primitives" : [
                {
                    "material" : 3,
                    "attributes" : {
                        "TEXCOORD_0" : 13,
                        "NORMAL" : 14,
                        "POSITION" : 15,
                        "COLOR_0" : 16
                    },
                    "indices" : 4
                }
            ],
            "name" : "Tire.1_tire1.002_0"
        },
        {
            "primitives" : [
                {
                    "material" : 4,
                    "attributes" : {
                        "TEXCOORD_0" : 17,
                        "NORMAL" : 18,
                        "POSITION" : 19
                    },
                    "indices" : 20
                }
            ],
            "name" : "Car_Material.002_0"
        }
    ],
    "textures" : [
        {
            "source" : 0
        },
        {
            "source" : 0
        },
        {
            "source" : 0
        },
        {
            "source" : 0
        },
        {
            "source" : 1
        }
    ],
    "images" : [
        {
            "bufferView" : 5,
            "mimeType" : "image/png",
            "name" : "Image_1"
        },
        {
            "bufferView" : 22,
            "mimeType" : "image/png",
            "name" : "Image_0"
        }
    ],
    "accessors" : [
        {
            "type" : "VEC2",
            "count" : 108,
            "bufferView" : 0,
            "componentType" : 5126
        },
        {
            "type" : "VEC3",
            "count" : 108,
            "bufferView" : 1,
            "componentType" : 5126
        },
        {
            "bufferView" : 2,
            "componentType" : 5126,
            "type" : "VEC3",
            "min" : [
                -0.42720985412597656,
                -0.22727587819099426,
                -0.40627557039260864
            ],
            "count" : 108,
            "max" : [
                0.42716026306152344,
                4.757195711135864e-06,
                0.4062764048576355
            ]
        },
        {
            "type" : "VEC4",
            "count" : 108,
            "bufferView" : 3,
            "componentType" : 5126
        },
        {
            "type" : "SCALAR",
            "count" : 108,
            "bufferView" : 4,
            "componentType" : 5123
        },
        {
            "type" : "VEC2",
            "count" : 108,
            "bufferView" : 6,
            "componentType" : 5126
        },
        {
            "type" : "VEC3",
            "count" : 108,
            "bufferView" : 7,
            "componentType" : 5126
        },
        {
            "bufferView" : 8,
            "componentType" : 5126,
            "type" : "VEC3",
            "min" : [
                -0.42720985412597656,
                -0.22727587819099426,
                -0.40627557039260864
            ],
            "count" : 108,
            "max" : [
                0.42716026306152344,
                4.757195711135864e-06,
                0.4062764048576355
            ]
        },
        {
            "type" : "VEC4",
            "count" : 108,
            "bufferView" : 9,
            "componentType" : 5126
        },
        {
            "type" : "VEC2",
            "count" : 108,
            "bufferView" : 10,
            "componentType" : 5126
        },
        {
            "type" : "VEC3",
            "count" : 108,
            "bufferView" : 11,
            "componentType" : 5126
        },
        {
            "bufferView" : 12,
            "componentType" : 5126,
            "type" : "VEC3",
            "min" : [
                -0.42720985412597656,
                -0.22727587819099426,
                -0.40627557039260864
            ],
            "count" : 108,
            "max" : [
                0.42716026306152344,
                4.757195711135864e-06,
                0.4062764048576355
            ]
        },
        {
            "type" : "VEC4",
            "count" : 108,
            "bufferView" : 13,
            "componentType" : 5126
        },
        {
            "type" : "VEC2",
            "count" : 108,
            "bufferView" : 14,
            "componentType" : 5126
        },
        {
            "type" : "VEC3",
            "count" : 108,
            "bufferView" : 15,
            "componentType" : 5126
        },
        {
            "bufferView" : 16,
            "componentType" : 5126,
            "type" : "VEC3",
            "min" : [
                -0.42720985412597656,
                -0.22727587819099426,
                -0.40627557039260864
            ],
            "count" : 108,
            "max" : [
                0.42716026306152344,
                4.757195711135864e-06,
                0.4062764048576355
            ]
        },
        {
            "type" : "VEC4",
            "count" : 108,
            "bufferView" : 17,
            "componentType" : 5126
        },
        {
            "type" : "VEC2",
            "count" : 714,
            "bufferView" : 18,
            "componentType" : 5126
        },
        {
            "type" : "VEC3",
            "count" : 714,
            "bufferView" : 19,
            "componentType" : 5126
        },
        {
            "bufferView" : 20,
            "componentType" : 5126,
            "type" : "VEC3",
            "min" : [
                -2.8047027587890625,
                -1.1176700592041016,
                -0.1485510766506195
            ],
            "count" : 714,
            "max" : [
                2.8814659118652344,
                0.9597606658935547,
                1.3986706733703613
            ]
        },
        {
            "type" : "SCALAR",
            "count" : 774,
            "bufferView" : 21,
            "componentType" : 5123
        }
    ],
    "bufferViews" : [
        {
            "byteOffset" : 0,
            "buffer" : 0,
            "byteLength" : 864
        },
        {
            "byteOffset" : 864,
            "buffer" : 0,
            "byteLength" : 1296
        },
        {
            "byteOffset" : 2160,
            "buffer" : 0,
            "byteLength" : 1296
        },
        {
            "byteOffset" : 3456,
            "buffer" : 0,
            "byteLength" : 1728
        },
        {
            "byteOffset" : 5184,
            "buffer" : 0,
            "byteLength" : 216
        },
        {
            "byteOffset" : 5400,
            "buffer" : 0,
            "byteLength" : 997
        },
        {
            "byteOffset" : 6400,
            "buffer" : 0,
            "byteLength" : 864
        },
        {
            "byteOffset" : 7264,
            "buffer" : 0,
            "byteLength" : 1296
        },
        {
            "byteOffset" : 8560,
            "buffer" : 0,
            "byteLength" : 1296
        },
        {
            "byteOffset" : 9856,
            "buffer" : 0,
            "byteLength" : 1728
        },
        {
            "byteOffset" : 11584,
            "buffer" : 0,
            "byteLength" : 864
        },
        {
            "byteOffset" : 12448,
            "buffer" : 0,
            "byteLength" : 1296
        },
        {
            "byteOffset" : 13744,
            "buffer" : 0,
            "byteLength" : 1296
        },
        {
            "byteOffset" : 15040,
            "buffer" : 0,
            "byteLength" : 1728
        },
        {
            "byteOffset" : 16768,
            "buffer" : 0,
            "byteLength" : 864
        },
        {
            "byteOffset" : 17632,
            "buffer" : 0,
            "byteLength" : 1296
        },
        {
            "byteOffset" : 18928,
            "buffer" : 0,
            "byteLength" : 1296
        },
        {
            "byteOffset" : 20224,
            "buffer" : 0,
            "byteLength" : 1728
        },
        {
            "byteOffset" : 21952,
            "buffer" : 0,
            "byteLength" : 5712
        },
        {
            "byteOffset" : 27664,
            "buffer" : 0,
            "byteLength" : 8568
        },
        {
            "byteOffset" : 36232,
            "buffer" : 0,
            "byteLength" : 8568
        },
        {
            "byteOffset" : 44800,
            "buffer" : 0,
            "byteLength" : 1548
        },
        {
            "byteOffset" : 46348,
            "buffer" : 0,
            "byteLength" : 6161
        }
    ],
    "buffers" : [
        {
            "byteLength" : 52512,
            "uri" : "data:application/octet-stream;base64,"
        }
    ]
}
