{
    "asset" : {
        "version" : "2.0",
        "generator" : "Khronos glTF Blender I/O v1.2.20"
    },
    "scene" : 0,
    "scenes" : [
        {
            "name" : "Scene",
            "nodes" : [
                0,
                1,
                3,
                4,
                5,
                6,
                7,
                8,
                9,
                10
            ]
        }
    ],
    "nodes" : [
        {
            "name" : "Lamp.002",
            "rotation" : [
                0.16907575726509094,
                0.7558803558349609,
                -0.27217137813568115,
                0.570947527885437
            ],
            "translation" : [
                -3.805316925048828,
                0.5529088973999023,
                0.059538841247558594
            ]
        },
        {
            "name" : "Lamp.001",
            "rotation" : [
                0.16907575726509094,
                0.7558803558349609,
                -0.27217137813568115,
                0.570947527885437
            ],
            "translation" : [
                0.48256731033325195,
                -0.5245881080627441,
                3.023402690887451
            ]
        },
        {
            "name" : "RootNode"
        },
        {
            "name" : "b38e473ff2484b0b9968d3cd78b5ee6f.fbx",
            "scale" : [
                0.009999999776482582,
                0.009999999776482582,
                0.009999999776482582
            ],
            "rotation" : [
                0.7071068286895752,
                0,
                0,
                0.7071068286895752
            ],
            "children" : [
                2
            ]
        },
        {
            "mesh" : 0,
            "name" : "Car_Material.002_0",
            "rotation" : [
                -0.5,
                -0.5000000596046448,
                -0.5000000596046448,
                0.5
            ],
            "translation" : [
                0.07596352696418762,
                0.5049208998680115,
                0
            ]
        },
        {
            "mesh" : 1,
            "name" : "Tire.1_tire1.002_0",
            "rotation" : [
                0,
                0,
                -0.7071068286895752,
                0.7071068286895752
            ],
            "translation" : [
                0.9407519102096558,
                0.44038504362106323,
                1.8859105110168457
            ]
        },
        {
            "mesh" : 2,
            "name" : "Tire.2_tire1.002_0",
            "rotation" : [
                0,
                0,
                -0.7071068286895752,
                0.7071068286895752
            ],
            "translation" : [
                -0.6979331970214844,
                0.44111764430999756,
                1.8819141387939453
            ]
        },
        {
            "mesh" : 3,
            "name" : "Tire.3_tire1.002_0",
            "rotation" : [
                0,
                0,
                -0.7071068286895752,
                0.7071068286895752
            ],
            "translation" : [
                -0.6993125677108765,
                0.4410610795021057,
                -1.459484577178955
            ]
        },
        {
            "mesh" : 4,
            "name" : "Tire.4_tire1.002_0",
            "rotation" : [
                0,
                0,
                -0.7071068286895752,
                0.7071068286895752
            ],
            "translation" : [
                0.9412814974784851,
                0.4390828609466553,
                -1.465346336364746
            ]
        },
        {
            "name" : "Lamp",
            "rotation" : [
                0.16907575726509094,
                0.7558803558349609,
                -0.27217137813568115,
                0.570947527885437
            ],
            "translation" : [
                3.9441003799438477,
                4.023476600646973,
                2.989363670349121
            ]
        },
        {
            "name" : "Camera",
            "rotation" : [
                0.483536034822464,
                0.33687159419059753,
                -0.20870360732078552,
                0.7804827094078064
            ],
            "translation" : [
                7.481131553649902,
                5.34366512298584,
                6.5076398849487305
            ]
        }
    ],
    "materials" : [
        {
            "name" : "Material.001",
            "pbrMetallicRoughness" : {
                "baseColorTexture" : {
                    "texCoord" : 0,
                    "index" : 0
                }
            }
        },
        {
            "name" : "Material.003",
            "pbrMetallicRoughness" : {
                "baseColorTexture" : {
                    "texCoord" : 0,
                    "index" : 1
                }
            }
        },
        {
            "name" : "Material.004",
            "pbrMetallicRoughness" : {
                "baseColorTexture" : {
                    "texCoord" : 0,
                    "index" : 2
                }
            }
        },
        {
            "name" : "Material.002",
            "pbrMetallicRoughness" : {
                "baseColorTexture" : {
                    "texCoord" : 0,
                    "index" : 3
                }
            }
        },
        {
            "name" : "Material.005",
            "pbrMetallicRoughness" : {
                "baseColorTexture" : {
                    "texCoord" : 0,
                    "index" : 4
                }
            }
        }
    ],
    "meshes" : [
        {
            "name" : "Car_Material.002_0",
            "primitives" : [
                {
                    "attributes" : {
                        "POSITION" : 0,
                        "NORMAL" : 1,
                        "TEXCOORD_0" : 2
                    },
                    "material" : 0,
                    "indices" : 3
                }
            ]
        },
        {
            "name" : "Tire.1_tire1.002_0",
            "primitives" : [
                {
                    "attributes" : {
                        "POSITION" : 4,
                        "NORMAL" : 5,
                        "COLOR_0" : 6,
                        "TEXCOORD_0" : 7
                    },
                    "material" : 1,
                    "indices" : 8
                }
            ]
        },
        {
            "name" : "Tire.2_tire1.002_0",
            "primitives" : [
                {
                    "attributes" : {
                        "POSITION" : 9,
                        "NORMAL" : 10,
                        "COLOR_0" : 11,
                        "TEXCOORD_0" : 12
                    },
                    "material" : 2,
                    "indices" : 8
                }
            ]
        },
        {
            "name" : "Tire.3_tire1.002_0",
            "primitives" : [
                {
                    "attributes" : {
                        "POSITION" : 13,
                        "NORMAL" : 14,
                        "COLOR_0" : 15,
                        "TEXCOORD_0" : 16
                    },
                    "material" : 3,
                    "indices" : 8
                }
            ]
        },
        {
            "name" : "Tire.4_tire1.002_0",
            "primitives" : [
                {
                    "attributes" : {
                        "POSITION" : 17,
                        "NORMAL" : 18,
                        "COLOR_0" : 19,
                        "TEXCOORD_0" : 20
                    },
                    "material" : 4,
                    "indices" : 8
                }
            ]
        }
    ],
    "textures" : [
        {
            "source" : 0,
            "sampler" : 0
        },
        {
            "source" : 1,
            "sampler" : 1
        },
        {
            "source" : 1,
            "sampler" : 2
        },
        {
            "source" : 1,
            "sampler" : 3
        },
        {
            "source" : 1,
            "sampler" : 4
        }
    ],
    "images" : [
        {
            "name" : "Material.002_diffuse.png",
            "bufferView" : 4,
            "mimeType" : "image/png"
        },
        {
            "name" : "tire1.002_diffuse.png",
            "bufferView" : 10,
            "mimeType" : "image/png"
        }
    ],
    "accessors" : [
        {
            "componentType" : 5126,
            "bufferView" : 0,
            "type" : "VEC3",
            "min" : [
                -2.8047027587890625,
                -1.1176700592041016,
                -0.1485510766506195
            ],
            "count" : 714,
            "max" : [
                2.8814659118652344,
                0.9597606658935547,
                1.3986706733703613
            ]
        },
        {
            "componentType" : 5126,
            "count" : 714,
            "type" : "VEC3",
            "bufferView" : 1
        },
        {
            "componentType" : 5126,
            "count" : 714,
            "type" : "VEC2",
            "bufferView" : 2
        },
        {
            "componentType" : 5123,
            "count" : 774,
            "type" : "SCALAR",
            "bufferView" : 3
        },
        {
            "componentType" : 5126,
            "bufferView" : 5,
            "type" : "VEC3",
            "min" : [
                -0.42720985412597656,
                -0.22727587819099426,
                -0.40627557039260864
            ],
            "count" : 108,
            "max" : [
                0.42716026306152344,
                4.757195711135864e-06,
                0.4062764048576355
            ]
        },
        {
            "componentType" : 5126,
            "count" : 108,
            "type" : "VEC3",
            "bufferView" : 6
        },
        {
            "componentType" : 5126,
            "count" : 108,
            "type" : "VEC4",
            "bufferView" : 7
        },
        {
            "componentType" : 5126,
            "count" : 108,
            "type" : "VEC2",
            "bufferView" : 8
        },
        {
            "componentType" : 5123,
            "count" : 108,
            "type" : "SCALAR",
            "bufferView" : 9
        },
        {
            "componentType" : 5126,
            "bufferView" : 11,
            "type" : "VEC3",
            "min" : [
                -0.42720985412597656,
                -0.22727587819099426,
                -0.40627557039260864
            ],
            "count" : 108,
            "max" : [
                0.42716026306152344,
                4.757195711135864e-06,
                0.4062764048576355
            ]
        },
        {
            "componentType" : 5126,
            "count" : 108,
            "type" : "VEC3",
            "bufferView" : 12
        },
        {
            "componentType" : 5126,
            "count" : 108,
            "type" : "VEC4",
            "bufferView" : 13
        },
        {
            "componentType" : 5126,
            "count" : 108,
            "type" : "VEC2",
            "bufferView" : 14
        },
        {
            "componentType" : 5126,
            "bufferView" : 15,
            "type" : "VEC3",
            "min" : [
                -0.42720985412597656,
                -0.22727587819099426,
                -0.40627557039260864
            ],
            "count" : 108,
            "max" : [
                0.42716026306152344,
                4.757195711135864e-06,
                0.4062764048576355
            ]
        },
        {
            "componentType" : 5126,
            "count" : 108,
            "type" : "VEC3",
            "bufferView" : 16
        },
        {
            "componentType" : 5126,
            "count" : 108,
            "type" : "VEC4",
            "bufferView" : 17
        },
        {
            "componentType" : 5126,
            "count" : 108,
            "type" : "VEC2",
            "bufferView" : 18
        },
        {
            "componentType" : 5126,
            "bufferView" : 19,
            "type" : "VEC3",
            "min" : [
                -0.42720985412597656,
                -0.22727587819099426,
                -0.40627557039260864
            ],
            "count" : 108,
            "max" : [
                0.42716026306152344,
                4.757195711135864e-06,
                0.4062764048576355
            ]
        },
        {
            "componentType" : 5126,
            "count" : 108,
            "type" : "VEC3",
            "bufferView" : 20
        },
        {
            "componentType" : 5126,
            "count" : 108,
            "type" : "VEC4",
            "bufferView" : 21
        },
        {
            "componentType" : 5126,
            "count" : 108,
            "type" : "VEC2",
            "bufferView" : 22
        }
    ],
    "bufferViews" : [
        {
            "byteLength" : 8568,
            "byteOffset" : 0,
            "buffer" : 0
        },
        {
            "byteLength" : 8568,
            "byteOffset" : 8568,
            "buffer" : 0
        },
        {
            "byteLength" : 5712,
            "byteOffset" : 17136,
            "buffer" : 0
        },
        {
            "byteLength" : 1548,
            "byteOffset" : 22848,
            "buffer" : 0
        },
        {
            "byteLength" : 6161,
            "byteOffset" : 24396,
            "buffer" : 0
        },
        {
            "byteLength" : 1296,
            "byteOffset" : 30560,
            "buffer" : 0
        },
        {
            "byteLength" : 1296,
            "byteOffset" : 31856,
            "buffer" : 0
        },
        {
            "byteLength" : 1728,
            "byteOffset" : 33152,
            "buffer" : 0
        },
        {
            "byteLength" : 864,
            "byteOffset" : 34880,
            "buffer" : 0
        },
        {
            "byteLength" : 216,
            "byteOffset" : 35744,
            "buffer" : 0
        },
        {
            "byteLength" : 997,
            "byteOffset" : 35960,
            "buffer" : 0
        },
        {
            "byteLength" : 1296,
            "byteOffset" : 36960,
            "buffer" : 0
        },
        {
            "byteLength" : 1296,
            "byteOffset" : 38256,
            "buffer" : 0
        },
        {
            "byteLength" : 1728,
            "byteOffset" : 39552,
            "buffer" : 0
        },
        {
            "byteLength" : 864,
            "byteOffset" : 41280,
            "buffer" : 0
        },
        {
            "byteLength" : 1296,
            "byteOffset" : 42144,
            "buffer" : 0
        },
        {
            "byteLength" : 1296,
            "byteOffset" : 43440,
            "buffer" : 0
        },
        {
            "byteLength" : 1728,
            "byteOffset" : 44736,
            "buffer" : 0
        },
        {
            "byteLength" : 864,
            "byteOffset" : 46464,
            "buffer" : 0
        },
        {
            "byteLength" : 1296,
            "byteOffset" : 47328,
            "buffer" : 0
        },
        {
            "byteLength" : 1296,
            "byteOffset" : 48624,
            "buffer" : 0
        },
        {
            "byteLength" : 1728,
            "byteOffset" : 49920,
            "buffer" : 0
        },
        {
            "byteLength" : 864,
            "byteOffset" : 51648,
            "buffer" : 0
        }
    ],
    "samplers" : [
        {
            "minFilter" : 9986,
            "magFilter" : 9729,
            "wrapS" : 10497,
            "wrapT" : 10497
        },
        {
            "minFilter" : 9986,
            "magFilter" : 9729,
            "wrapS" : 10497,
            "wrapT" : 10497
        },
        {
            "minFilter" : 9986,
            "magFilter" : 9729,
            "wrapS" : 10497,
            "wrapT" : 10497
        },
        {
            "minFilter" : 9986,
            "magFilter" : 9729,
            "wrapS" : 10497,
            "wrapT" : 10497
        },
        {
            "minFilter" : 9986,
            "magFilter" : 9729,
            "wrapS" : 10497,
            "wrapT" : 10497
        }
    ],
    "buffers" : [
        {
            "byteLength" : 52512,
            "uri" : "data:application/octet-stream;base64,"
        }
    ]
}
