{
    "asset" : {
        "generator" : "Khronos glTF Blender I/O v1.2.20",
        "version" : "2.0"
    },
    "scene" : 0,
    "scenes" : [
        {
            "name" : "Scene",
            "nodes" : [
                0,
                1,
                2,
                3,
                4,
                5
            ]
        }
    ],
    "nodes" : [
        {
            "translation" : [
                2.6856675148010254,
                1.2092595100402832,
                -0.4493565559387207
            ],
            "rotation" : [
                0.16907575726509094,
                0.7558803558349609,
                -0.27217137813568115,
                0.570947527885437
            ],
            "name" : "Lamp.003"
        },
        {
            "translation" : [
                0.10379147529602051,
                0.6245700716972351,
                4.749311447143555
            ],
            "rotation" : [
                0.16907575726509094,
                0.7558803558349609,
                -0.27217137813568115,
                0.570947527885437
            ],
            "name" : "Lamp.002"
        },
        {
            "translation" : [
                -1.887598991394043,
                1.3137073516845703,
                -1.9433259963989258
            ],
            "rotation" : [
                0.16907575726509094,
                0.7558803558349609,
                -0.27217137813568115,
                0.570947527885437
            ],
            "name" : "Lamp.001"
        },
        {
            "mesh" : 0,
            "translation" : [
                0.15186873078346252,
                0,
                0
            ],
            "rotation" : [
                0,
                0.7071067094802856,
                -0.7071068286895752,
                -1.1520230458472724e-07
            ],
            "name" : "mesh_0"
        },
        {
            "translation" : [
                2.5922129154205322,
                5.903861999511719,
                -1.0054539442062378
            ],
            "rotation" : [
                0.16907575726509094,
                0.7558803558349609,
                -0.27217137813568115,
                0.570947527885437
            ],
            "name" : "Lamp"
        },
        {
            "translation" : [
                5.997098922729492,
                5.34366512298584,
                6.5076398849487305
            ],
            "rotation" : [
                0.483536034822464,
                0.33687159419059753,
                -0.20870360732078552,
                0.7804827094078064
            ],
            "name" : "Camera"
        }
    ],
    "materials" : [
        {
            "pbrMetallicRoughness" : {
                "baseColorTexture" : {
                    "index" : 0,
                    "texCoord" : 0
                }
            },
            "name" : "bmw_body_lolollololllolool"
        },
        {
            "pbrMetallicRoughness" : {
                "baseColorTexture" : {
                    "index" : 1,
                    "texCoord" : 0
                }
            },
            "name" : "wheel_rear_R"
        },
        {
            "pbrMetallicRoughness" : {
                "baseColorTexture" : {
                    "index" : 2,
                    "texCoord" : 0
                }
            },
            "name" : "wheel_front_R"
        },
        {
            "pbrMetallicRoughness" : {
                "baseColorTexture" : {
                    "index" : 3,
                    "texCoord" : 0
                }
            },
            "name" : "wheel_front_L"
        },
        {
            "pbrMetallicRoughness" : {
                "baseColorTexture" : {
                    "index" : 4,
                    "texCoord" : 0
                }
            },
            "name" : "wheel_rear_left"
        }
    ],
    "meshes" : [
        {
            "primitives" : [
                {
                    "attributes" : {
                        "POSITION" : 0,
                        "NORMAL" : 1,
                        "TEXCOORD_0" : 2
                    },
                    "material" : 0,
                    "indices" : 3
                },
                {
                    "attributes" : {
                        "POSITION" : 4,
                        "NORMAL" : 5,
                        "TEXCOORD_0" : 6
                    },
                    "material" : 1,
                    "indices" : 7
                },
                {
                    "attributes" : {
                        "POSITION" : 8,
                        "NORMAL" : 9,
                        "TEXCOORD_0" : 10
                    },
                    "material" : 2,
                    "indices" : 7
                },
                {
                    "attributes" : {
                        "POSITION" : 11,
                        "NORMAL" : 12,
                        "TEXCOORD_0" : 13
                    },
                    "material" : 3,
                    "indices" : 14
                },
                {
                    "attributes" : {
                        "POSITION" : 15,
                        "NORMAL" : 16,
                        "TEXCOORD_0" : 17
                    },
                    "material" : 4,
                    "indices" : 14
                }
            ],
            "name" : "mesh_0"
        }
    ],
    "textures" : [
        {
            "sampler" : 0,
            "source" : 0
        },
        {
            "sampler" : 1,
            "source" : 0
        },
        {
            "sampler" : 2,
            "source" : 0
        },
        {
            "sampler" : 3,
            "source" : 0
        },
        {
            "sampler" : 4,
            "source" : 0
        }
    ],
    "images" : [
        {
            "mimeType" : "image/png",
            "bufferView" : 4,
            "name" : "m3.png"
        }
    ],
    "accessors" : [
        {
            "max" : [
                1.03150475025177,
                2.227811813354492,
                -0.05600486695766449
            ],
            "componentType" : 5126,
            "bufferView" : 0,
            "min" : [
                -0.7997583150863647,
                -2.2735440731048584,
                -1.233340859413147
            ],
            "type" : "VEC3",
            "count" : 2746
        },
        {
            "type" : "VEC3",
            "componentType" : 5126,
            "bufferView" : 1,
            "count" : 2746
        },
        {
            "type" : "VEC2",
            "componentType" : 5126,
            "bufferView" : 2,
            "count" : 2746
        },
        {
            "type" : "SCALAR",
            "componentType" : 5123,
            "bufferView" : 3,
            "count" : 2940
        },
        {
            "max" : [
                -0.4655103087425232,
                -0.8693660497665405,
                0.06110813468694687
            ],
            "componentType" : 5126,
            "bufferView" : 5,
            "min" : [
                -0.7539252638816833,
                -1.512660026550293,
                -0.5783698558807373
            ],
            "type" : "VEC3",
            "count" : 66
        },
        {
            "type" : "VEC3",
            "componentType" : 5126,
            "bufferView" : 6,
            "count" : 66
        },
        {
            "type" : "VEC2",
            "componentType" : 5126,
            "bufferView" : 7,
            "count" : 66
        },
        {
            "type" : "SCALAR",
            "componentType" : 5123,
            "bufferView" : 8,
            "count" : 96
        },
        {
            "max" : [
                -0.46616131067276,
                1.7558479309082031,
                0.029244134202599525
            ],
            "componentType" : 5126,
            "bufferView" : 9,
            "min" : [
                -0.7545753121376038,
                1.1125528812408447,
                -0.6102348566055298
            ],
            "type" : "VEC3",
            "count" : 66
        },
        {
            "type" : "VEC3",
            "componentType" : 5126,
            "bufferView" : 10,
            "count" : 66
        },
        {
            "type" : "VEC2",
            "componentType" : 5126,
            "bufferView" : 11,
            "count" : 66
        },
        {
            "max" : [
                0.986608624458313,
                1.752539873123169,
                0.04276213422417641
            ],
            "componentType" : 5126,
            "bufferView" : 12,
            "min" : [
                0.6981936693191528,
                1.109217882156372,
                -0.5966829061508179
            ],
            "type" : "VEC3",
            "count" : 66
        },
        {
            "type" : "VEC3",
            "componentType" : 5126,
            "bufferView" : 13,
            "count" : 66
        },
        {
            "type" : "VEC2",
            "componentType" : 5126,
            "bufferView" : 14,
            "count" : 66
        },
        {
            "type" : "SCALAR",
            "componentType" : 5123,
            "bufferView" : 15,
            "count" : 96
        },
        {
            "max" : [
                0.9859577417373657,
                -0.8726740479469299,
                0.0746261328458786
            ],
            "componentType" : 5126,
            "bufferView" : 16,
            "min" : [
                0.697543740272522,
                -1.5159960985183716,
                -0.5648188591003418
            ],
            "type" : "VEC3",
            "count" : 66
        },
        {
            "type" : "VEC3",
            "componentType" : 5126,
            "bufferView" : 17,
            "count" : 66
        },
        {
            "type" : "VEC2",
            "componentType" : 5126,
            "bufferView" : 18,
            "count" : 66
        }
    ],
    "bufferViews" : [
        {
            "byteLength" : 32952,
            "byteOffset" : 0,
            "buffer" : 0
        },
        {
            "byteLength" : 32952,
            "byteOffset" : 32952,
            "buffer" : 0
        },
        {
            "byteLength" : 21968,
            "byteOffset" : 65904,
            "buffer" : 0
        },
        {
            "byteLength" : 5880,
            "byteOffset" : 87872,
            "buffer" : 0
        },
        {
            "byteLength" : 47087,
            "byteOffset" : 93752,
            "buffer" : 0
        },
        {
            "byteLength" : 792,
            "byteOffset" : 140840,
            "buffer" : 0
        },
        {
            "byteLength" : 792,
            "byteOffset" : 141632,
            "buffer" : 0
        },
        {
            "byteLength" : 528,
            "byteOffset" : 142424,
            "buffer" : 0
        },
        {
            "byteLength" : 192,
            "byteOffset" : 142952,
            "buffer" : 0
        },
        {
            "byteLength" : 792,
            "byteOffset" : 143144,
            "buffer" : 0
        },
        {
            "byteLength" : 792,
            "byteOffset" : 143936,
            "buffer" : 0
        },
        {
            "byteLength" : 528,
            "byteOffset" : 144728,
            "buffer" : 0
        },
        {
            "byteLength" : 792,
            "byteOffset" : 145256,
            "buffer" : 0
        },
        {
            "byteLength" : 792,
            "byteOffset" : 146048,
            "buffer" : 0
        },
        {
            "byteLength" : 528,
            "byteOffset" : 146840,
            "buffer" : 0
        },
        {
            "byteLength" : 192,
            "byteOffset" : 147368,
            "buffer" : 0
        },
        {
            "byteLength" : 792,
            "byteOffset" : 147560,
            "buffer" : 0
        },
        {
            "byteLength" : 792,
            "byteOffset" : 148352,
            "buffer" : 0
        },
        {
            "byteLength" : 528,
            "byteOffset" : 149144,
            "buffer" : 0
        }
    ],
    "samplers" : [
        {
            "magFilter" : 9729,
            "wrapT" : 10497,
            "minFilter" : 9986,
            "wrapS" : 10497
        },
        {
            "magFilter" : 9729,
            "wrapT" : 10497,
            "minFilter" : 9986,
            "wrapS" : 10497
        },
        {
            "magFilter" : 9729,
            "wrapT" : 10497,
            "minFilter" : 9986,
            "wrapS" : 10497
        },
        {
            "magFilter" : 9729,
            "wrapT" : 10497,
            "minFilter" : 9986,
            "wrapS" : 10497
        },
        {
            "magFilter" : 9729,
            "wrapT" : 10497,
            "minFilter" : 9986,
            "wrapS" : 10497
        }
    ],
    "buffers" : [
        {
            "byteLength" : 149672,
            "uri" : "data:application/octet-stream;base64,"
        }
    ]
}
